<svg width="30" height="31" viewBox="0 0 30 31" fill="none" xmlns="http://www.w3.org/2000/svg">
<path d="M11.25 21.9584V21.4584C10.9739 21.4584 10.75 21.6822 10.75 21.9584H11.25ZM18.75 21.9584H19.25C19.25 21.6822 19.0261 21.4584 18.75 21.4584V21.9584ZM11.25 22.4584H18.75V21.4584H11.25V22.4584ZM18.25 21.9584V23.25H19.25V21.9584H18.25ZM11.75 23.25V21.9584H10.75V23.25H11.75ZM15 26.625C13.2204 26.625 11.75 25.1296 11.75 23.25H10.75C10.75 25.6507 12.6375 27.625 15 27.625V26.625ZM18.25 23.25C18.25 25.1296 16.7796 26.625 15 26.625V27.625C17.3625 27.625 19.25 25.6507 19.25 23.25H18.25Z" fill="white"/>
<path d="M5.36612 18.9967L5.00682 18.649H5.00682L5.36612 18.9967ZM6.00465 18.3369L6.36395 18.6846H6.36395L6.00465 18.3369ZM23.9953 18.3368L24.3546 17.9891V17.9891L23.9953 18.3368ZM24.6339 18.9967L24.9932 18.649V18.649L24.6339 18.9967ZM15 3.875L15 4.375L15 3.875ZM23.75 21.4584H6.25V22.4584H23.75V21.4584ZM5.5 20.6667V19.91H4.5V20.6667H5.5ZM5.72542 19.3444L6.36395 18.6846L5.64535 17.9892L5.00682 18.649L5.72542 19.3444ZM6.75 17.7248V12.9167H5.75V17.7248H6.75ZM23.25 12.9167V17.7248H24.25V12.9167H23.25ZM23.636 18.6845L24.2746 19.3444L24.9932 18.649L24.3546 17.9891L23.636 18.6845ZM24.5 19.91V20.6667H25.5V19.91H24.5ZM24.2746 19.3444C24.4171 19.4917 24.5 19.6949 24.5 19.91H25.5C25.5 19.4401 25.3195 18.9862 24.9932 18.649L24.2746 19.3444ZM23.25 17.7248C23.25 18.0818 23.3871 18.4273 23.636 18.6845L24.3546 17.9891C24.2894 17.9217 24.25 17.8269 24.25 17.7248H23.25ZM24.25 12.9167C24.25 7.66252 20.1239 3.37499 15 3.375L15 4.375C19.541 4.37499 23.25 8.18365 23.25 12.9167H24.25ZM6.75 12.9167C6.75 8.18366 10.459 4.37501 15 4.375L15 3.375C9.87602 3.37501 5.75 7.66254 5.75 12.9167H6.75ZM6.36395 18.6846C6.61292 18.4273 6.75 18.0818 6.75 17.7248H5.75C5.75 17.827 5.71057 17.9218 5.64535 17.9892L6.36395 18.6846ZM5.5 19.91C5.5 19.6949 5.58287 19.4917 5.72542 19.3444L5.00682 18.649C4.68052 18.9862 4.5 19.4401 4.5 19.91H5.5ZM6.25 21.4584C5.85111 21.4584 5.5 21.1195 5.5 20.6667H4.5C4.5 21.6406 5.26817 22.4584 6.25 22.4584V21.4584ZM23.75 22.4584C24.7318 22.4584 25.5 21.6406 25.5 20.6667H24.5C24.5 21.1195 24.1489 21.4584 23.75 21.4584V22.4584Z" fill="white"/>
<path d="M22.5227 2.60095C24.2467 3.9434 25.6049 5.72432 26.465 7.77029" stroke="white" stroke-linecap="round" stroke-linejoin="round"/>
<path d="M7.47746 2.60095C5.75344 3.9434 4.39525 5.72432 3.53516 7.77029" stroke="white" stroke-linecap="round" stroke-linejoin="round"/>
</svg>
